<svg version="1.2" xmlns="http://www.w3.org/2000/svg" viewBox="0 0 291 160" width="291" height="160">
	<title>logo-lg</title>
	<style>
		.s0 { opacity: .85;fill: #fd70af }
		.s1 { opacity: .85;fill: #3e87ff }
		.s2 { opacity: .85;fill: #2fc995 }
	</style>
	<g id="Logo New">
		<path id="Shape 77" class="s0" d="m80 1.7c43.2 0 78.2 35 78.2 78.2 0 43.1-35 78.2-78.2 78.2-43.2 0-78.2-35.1-78.2-78.2 0-43.2 35-78.2 78.2-78.2z"/>
		<path id="Shape 77 copy" class="s1" d="m145.8 1.7c43.2 0 78.2 35 78.2 78.2 0 43.1-35 78.2-78.2 78.2-43.1 0-78.2-35.1-78.2-78.2 0-43.2 35.1-78.2 78.2-78.2z"/>
		<path id="Shape 77 copy 2" class="s2" d="m211.7 1.7c43.1 0 78.2 35 78.2 78.2 0 43.1-35.1 78.2-78.2 78.2-43.2 0-78.2-35.1-78.2-78.2 0-43.2 35-78.2 78.2-78.2z"/>
	</g>
</svg>